# xmcd
#
# Track frame offsets:
#	150
#	13480
#	25897
#	40459
#	55997
#	81183
#	95727
#	109671
#	121704
#	133511
#	146246
#	169338
#	191884
#	210348
#	225651
#	248055
#	262864
#	277942
#
# Disc length: 3854
#
# Revision: 2
# Processed by: cddbd v1.5.1PL0 Copyright (c) Steve Scherf et al.
# Submitted via: libkcddb 0.10
# Normalized: r1:TDELIM( - ),TSWAP
#
DISCID=010f0c12
DTITLE=Varies Artists - Walking the Blues
DYEAR=1900
DGENRE=
TTITLE0=Champion Jack Dupree - Walking the Blues
TTITLE1=Smokey Hogg - Overhead Blues
TTITLE2=John lee Hooker - Wandering Blues
TTITLE3=Jimmy Witherspoon - Troble in mind
TTITLE4=Howlin' Wolf - Little Red Roster
TTITLE5=Big Bill Broonzy - Please Baby don't go
TTITLE6=Muddy Waters - 40 Days and 40 Nights
TTITLE7=Charles Brown - Trouble Blues
TTITLE8=Big Joe Williams - Old Saw Mill Blues
TTITLE9=Bessie Smith - I'm wild about that thing
TTITLE10=Sam Lightnin' Hopkins - I'm gonna meet by baby somewhere
TTITLE11=Big Bill Broonzy - Ridin' on down
TTITLE12=Howlin' Wolf - Commit a crime
TTITLE13=Billie Holiday - Stormy Blues
TTITLE14=Elmore James - Something inside of me
TTITLE15=Roosevelt Sykes - Out on a limb
TTITLE16=Billie Holiday - T' ain't nobody's bizness if id do
TTITLE17=Big Bill Broonzy - Jinx Blues
EXTD=
EXTT0=
EXTT1=
EXTT2=
EXTT3=
EXTT4=
EXTT5=
EXTT6=
EXTT7=
EXTT8=
EXTT9=
EXTT10=
EXTT11=
EXTT12=
EXTT13=
EXTT14=
EXTT15=
EXTT16=
EXTT17=
PLAYORDER=
